<svg width="387" height="445" viewBox="0 0 387 445" fill="none" xmlns="http://www.w3.org/2000/svg">
<g filter="url(#filter0_d_823_472)">
<rect x="11.1001" y="9.25" width="364.45" height="422.725" rx="22.2" fill="url(#paint0_linear_823_472)"/>
<rect x="15.7251" y="13.875" width="355.2" height="413.475" rx="17.575" stroke="white" stroke-width="9.25"/>
<rect x="58.2751" y="61.975" width="278.425" height="176.675" rx="10.175" fill="url(#paint1_linear_823_472)" stroke="url(#paint2_linear_823_472)" stroke-width="1.85"/>
<rect x="201.283" y="118.106" width="113.944" height="34.3204" rx="5.55" fill="url(#paint3_linear_823_472)"/>
<rect x="81.8481" y="119.479" width="32.9476" height="4.11845" rx="2.05923" fill="#D3DEE9"/>
<rect opacity="0.6" x="80.4751" y="176.594" width="17.8466" height="4.11845" rx="2.05923" fill="#D3DEE9"/>
<rect opacity="0.6" x="169.708" y="176.594" width="17.8466" height="4.11845" rx="2.05923" fill="#D3DEE9"/>
<rect opacity="0.6" x="258.941" y="176.594" width="17.8466" height="4.11845" rx="2.05923" fill="#D3DEE9"/>
<rect x="155.98" y="90.65" width="19.2194" height="4.11845" rx="2.05923" fill="#D3DEE9"/>
<rect x="183.437" y="90.65" width="19.2194" height="4.11845" rx="2.05923" fill="#D3DEE9"/>
<rect x="210.893" y="90.65" width="19.2194" height="4.11845" rx="2.05923" fill="#D3DEE9"/>
<rect x="287.771" y="90.65" width="27.4563" height="6.86409" rx="3.43204" fill="#D3DEE9"/>
<rect x="81.8481" y="133.207" width="97.47" height="4.11845" rx="2.05923" fill="#D3DEE9"/>
<rect opacity="0.6" x="80.4751" y="188.12" width="50.7942" height="4.11845" rx="2.05923" fill="#D3DEE9"/>
<rect opacity="0.6" x="169.708" y="188.12" width="50.7942" height="4.11845" rx="2.05923" fill="#D3DEE9"/>
<rect opacity="0.6" x="258.941" y="188.12" width="50.7942" height="4.11845" rx="2.05923" fill="#D3DEE9"/>
<rect opacity="0.4" x="80.4751" y="201.848" width="50.7942" height="4.11845" rx="2.05923" fill="#D3DEE9"/>
<rect opacity="0.4" x="169.708" y="201.848" width="50.7942" height="4.11845" rx="2.05923" fill="#D3DEE9"/>
<rect opacity="0.4" x="258.941" y="201.848" width="50.7942" height="4.11845" rx="2.05923" fill="#D3DEE9"/>
<rect x="81.8481" y="146.935" width="97.47" height="4.11845" rx="2.05923" fill="#D3DEE9"/>
<g filter="url(#filter1_d_823_472)">
<path d="M325.75 236.034C325.491 235.701 325.167 235.026 324.603 234.184C324.279 233.722 323.484 232.843 323.243 232.39C323.07 232.114 323.019 231.779 323.104 231.465C323.25 230.867 323.816 230.471 324.427 230.54C324.9 230.635 325.334 230.866 325.676 231.206C325.915 231.431 326.134 231.675 326.333 231.936C326.481 232.121 326.518 232.195 326.684 232.408C326.851 232.621 326.962 232.834 326.878 232.519C326.814 232.057 326.703 231.28 326.545 230.586C326.425 230.059 326.397 229.975 326.286 229.578C326.175 229.18 326.111 228.847 325.99 228.394C325.88 227.948 325.794 227.498 325.731 227.043C325.615 226.462 325.7 225.858 325.972 225.332C326.295 225.028 326.769 224.948 327.174 225.128C327.582 225.429 327.886 225.85 328.044 226.331C328.286 226.923 328.448 227.545 328.525 228.181C328.673 229.106 328.96 230.456 328.969 230.734C328.969 230.392 328.904 229.67 328.969 229.346C329.033 229.009 329.268 228.729 329.589 228.606C329.864 228.522 330.155 228.503 330.44 228.551C330.726 228.611 330.98 228.776 331.152 229.013C331.366 229.553 331.485 230.126 331.503 230.706C331.528 230.198 331.615 229.695 331.762 229.208C331.917 228.99 332.143 228.833 332.401 228.764C332.706 228.708 333.02 228.708 333.326 228.764C333.576 228.847 333.796 229.006 333.955 229.217C334.15 229.707 334.269 230.225 334.306 230.752C334.306 230.882 334.371 230.392 334.574 230.068C334.68 229.754 334.945 229.52 335.27 229.455C335.595 229.389 335.93 229.502 336.149 229.751C336.368 229.999 336.438 230.346 336.332 230.66C336.332 231.261 336.332 231.233 336.332 231.64C336.332 232.047 336.332 232.408 336.332 232.75C336.298 233.292 336.224 233.83 336.11 234.36C335.949 234.829 335.725 235.274 335.444 235.683C334.995 236.182 334.624 236.747 334.343 237.357C334.274 237.66 334.242 237.971 334.251 238.282C334.25 238.569 334.287 238.855 334.362 239.133C333.983 239.173 333.602 239.173 333.224 239.133C332.863 239.077 332.419 238.356 332.299 238.134C332.239 238.015 332.118 237.939 331.984 237.939C331.851 237.939 331.729 238.015 331.67 238.134C331.466 238.485 331.013 239.124 330.699 239.161C330.079 239.235 328.802 239.161 327.794 239.161C327.794 239.161 327.961 238.236 327.581 237.903C327.202 237.57 326.814 237.181 326.527 236.922L325.75 236.034Z" fill="white"/>
<path fill-rule="evenodd" clip-rule="evenodd" d="M325.75 236.034C325.491 235.701 325.167 235.026 324.603 234.184C324.279 233.722 323.484 232.843 323.243 232.39C323.07 232.114 323.019 231.779 323.104 231.465C323.25 230.867 323.816 230.471 324.427 230.54C324.9 230.635 325.334 230.866 325.676 231.206C325.915 231.431 326.134 231.675 326.333 231.936C326.481 232.121 326.518 232.195 326.684 232.408C326.851 232.621 326.962 232.834 326.878 232.519C326.814 232.057 326.703 231.28 326.545 230.586C326.425 230.059 326.397 229.975 326.286 229.578C326.175 229.18 326.111 228.847 325.99 228.394C325.88 227.948 325.794 227.498 325.731 227.043C325.615 226.462 325.7 225.858 325.972 225.332C326.295 225.028 326.769 224.948 327.174 225.128C327.582 225.429 327.886 225.85 328.044 226.331C328.286 226.923 328.448 227.545 328.525 228.181C328.673 229.106 328.96 230.456 328.969 230.734C328.969 230.392 328.904 229.67 328.969 229.346C329.033 229.009 329.268 228.729 329.589 228.606C329.864 228.522 330.155 228.503 330.44 228.551C330.726 228.611 330.98 228.776 331.152 229.013C331.366 229.553 331.485 230.126 331.503 230.706C331.528 230.198 331.615 229.695 331.762 229.208C331.917 228.99 332.143 228.833 332.401 228.764C332.706 228.708 333.02 228.708 333.326 228.764C333.576 228.847 333.796 229.006 333.955 229.217C334.15 229.707 334.269 230.225 334.306 230.752C334.306 230.882 334.371 230.392 334.574 230.068C334.68 229.754 334.945 229.52 335.27 229.455C335.595 229.389 335.93 229.502 336.149 229.751C336.368 229.999 336.438 230.346 336.332 230.66C336.332 231.261 336.332 231.233 336.332 231.64C336.332 232.047 336.332 232.408 336.332 232.75C336.298 233.292 336.224 233.83 336.11 234.36C335.949 234.829 335.725 235.274 335.444 235.683C334.995 236.182 334.624 236.747 334.343 237.357C334.274 237.66 334.242 237.971 334.251 238.282C334.25 238.569 334.287 238.855 334.362 239.133C333.983 239.173 333.602 239.173 333.224 239.133C332.863 239.077 332.419 238.356 332.299 238.134C332.239 238.015 332.118 237.939 331.984 237.939C331.851 237.939 331.729 238.015 331.67 238.134C331.466 238.485 331.013 239.124 330.699 239.161C330.079 239.235 328.802 239.161 327.794 239.161C327.794 239.161 327.961 238.236 327.581 237.903C327.202 237.57 326.814 237.181 326.527 236.922L325.75 236.034Z" stroke="black" stroke-width="0.69375" stroke-linecap="round" stroke-linejoin="round"/>
<path d="M333.594 236.539V233.346C333.594 233.155 333.439 233 333.247 233C333.056 233 332.9 233.155 332.9 233.346V236.539C332.9 236.73 333.056 236.885 333.247 236.885C333.439 236.885 333.594 236.73 333.594 236.539Z" fill="black"/>
<path d="M331.763 236.538L331.744 233.343C331.743 233.153 331.587 232.999 331.395 233C331.204 233.001 331.049 233.157 331.05 233.347L331.069 236.542C331.07 236.733 331.226 236.886 331.418 236.885C331.609 236.884 331.764 236.729 331.763 236.538Z" fill="black"/>
<path d="M329.2 233.351L329.219 236.539C329.22 236.731 329.376 236.886 329.568 236.885C329.759 236.884 329.914 236.727 329.912 236.535L329.894 233.347C329.893 233.154 329.737 232.999 329.545 233C329.353 233.001 329.199 233.158 329.2 233.351Z" fill="black"/>
</g>
<rect x="255.55" y="79.25" width="82" height="25" rx="7" fill="#5DBEFF" fill-opacity="0.4"/>
<g clip-path="url(#clip0_823_472)">
<path d="M277.239 83.75H269.862C267.481 83.75 265.55 85.6803 265.55 88.0615V95.4385C265.55 97.8197 267.481 99.75 269.862 99.75H277.239C279.62 99.75 281.55 97.8197 281.55 95.4385V88.0615C281.55 85.6803 279.62 83.75 277.239 83.75Z" fill="#0026FF"/>
<path d="M279.125 86.8808V91.005C279.125 91.0863 279.059 91.1526 278.977 91.1526H270.964C270.705 91.1526 270.478 91.3342 270.429 91.5878C270.394 91.7713 270.375 91.9606 270.374 92.1545C270.207 92.005 270.064 91.8508 269.942 91.6947C269.9 91.6408 269.86 91.5868 269.822 91.531C268.419 89.5025 269.961 86.7285 272.427 86.7285H278.973C279.057 86.7285 279.125 86.7966 279.125 86.8808Z" fill="white"/>
<path d="M267.975 96.6194V92.4952C267.975 92.4138 268.041 92.3476 268.123 92.3476H276.136C276.395 92.3476 276.622 92.1659 276.671 91.9124C276.706 91.7288 276.725 91.5396 276.726 91.3456C276.893 91.4951 277.036 91.6493 277.158 91.8055C277.2 91.8594 277.241 91.9133 277.278 91.9691C278.682 93.9976 277.139 96.7717 274.673 96.7717H268.127C268.043 96.7717 267.975 96.7036 267.975 96.6194Z" fill="white"/>
</g>
<path d="M297.694 97.926C294.398 97.926 292.206 95.558 292.206 91.974C292.206 88.406 294.462 85.99 297.774 85.99C300.382 85.99 302.382 87.542 302.814 89.91H301.134C300.702 88.406 299.406 87.494 297.726 87.494C295.39 87.494 293.854 89.254 293.854 91.958C293.854 94.662 295.39 96.422 297.726 96.422C299.422 96.422 300.766 95.51 301.198 94.086H302.862C302.366 96.39 300.302 97.926 297.694 97.926ZM306.661 97.942C304.981 97.942 303.989 96.998 303.989 95.574C303.989 94.134 305.061 93.238 306.901 93.094L309.365 92.902V92.678C309.365 91.366 308.581 90.902 307.525 90.902C306.261 90.902 305.541 91.462 305.541 92.406H304.229C304.229 90.774 305.573 89.702 307.589 89.702C309.525 89.702 310.837 90.726 310.837 92.838V97.75H309.557L309.397 96.486C308.997 97.382 307.925 97.942 306.661 97.942ZM307.093 96.774C308.517 96.774 309.381 95.846 309.381 94.374V93.958L307.381 94.118C306.053 94.246 305.509 94.758 305.509 95.526C305.509 96.358 306.117 96.774 307.093 96.774ZM317.4 89.862V91.238H316.728C315.304 91.238 314.424 92.102 314.424 93.606V97.75H312.92V89.942H314.328L314.424 91.126C314.744 90.31 315.528 89.766 316.6 89.766C316.872 89.766 317.096 89.798 317.4 89.862ZM321.665 97.942C319.393 97.942 318.017 96.246 318.017 93.862C318.017 91.462 319.409 89.702 321.729 89.702C322.929 89.702 323.937 90.23 324.465 91.19V85.974H325.953V97.75H324.609L324.481 96.326C323.969 97.398 322.913 97.942 321.665 97.942ZM321.969 96.582C323.505 96.582 324.449 95.446 324.449 93.814C324.449 92.214 323.505 91.062 321.969 91.062C320.433 91.062 319.537 92.214 319.537 93.814C319.537 95.43 320.433 96.582 321.969 96.582Z" fill="#0026FF"/>
</g>
<defs>
<filter id="filter0_d_823_472" x="9.82285e-05" y="5.96046e-07" width="386.65" height="444.925" filterUnits="userSpaceOnUse" color-interpolation-filters="sRGB">
<feFlood flood-opacity="0" result="BackgroundImageFix"/>
<feColorMatrix in="SourceAlpha" type="matrix" values="0 0 0 0 0 0 0 0 0 0 0 0 0 0 0 0 0 0 127 0" result="hardAlpha"/>
<feOffset dy="1.85"/>
<feGaussianBlur stdDeviation="5.55"/>
<feComposite in2="hardAlpha" operator="out"/>
<feColorMatrix type="matrix" values="0 0 0 0 0 0 0 0 0 0 0 0 0 0 0 0 0 0 0.08 0"/>
<feBlend mode="normal" in2="BackgroundImageFix" result="effect1_dropShadow_823_472"/>
<feBlend mode="normal" in="SourceGraphic" in2="effect1_dropShadow_823_472" result="shape"/>
</filter>
<filter id="filter1_d_823_472" x="321.977" y="224.686" width="15.49" height="16.5194" filterUnits="userSpaceOnUse" color-interpolation-filters="sRGB">
<feFlood flood-opacity="0" result="BackgroundImageFix"/>
<feColorMatrix in="SourceAlpha" type="matrix" values="0 0 0 0 0 0 0 0 0 0 0 0 0 0 0 0 0 0 127 0" result="hardAlpha"/>
<feOffset dy="0.925"/>
<feGaussianBlur stdDeviation="0.37"/>
<feColorMatrix type="matrix" values="0 0 0 0 0 0 0 0 0 0 0 0 0 0 0 0 0 0 0.5 0"/>
<feBlend mode="normal" in2="BackgroundImageFix" result="effect1_dropShadow_823_472"/>
<feBlend mode="normal" in="SourceGraphic" in2="effect1_dropShadow_823_472" result="shape"/>
</filter>
<linearGradient id="paint0_linear_823_472" x1="35.485" y1="9.25001" x2="358.547" y2="414.431" gradientUnits="userSpaceOnUse">
<stop stop-color="#E6F5FF"/>
<stop offset="0.635098" stop-color="#FCFCFC"/>
</linearGradient>
<linearGradient id="paint1_linear_823_472" x1="197.488" y1="36.075" x2="197.488" y2="239.575" gradientUnits="userSpaceOnUse">
<stop stop-color="white"/>
<stop offset="1" stop-color="#F7FAFF"/>
</linearGradient>
<linearGradient id="paint2_linear_823_472" x1="197.488" y1="61.05" x2="197.488" y2="239.575" gradientUnits="userSpaceOnUse">
<stop stop-color="#5DBEFF" stop-opacity="0.4"/>
<stop offset="1" stop-color="#878787" stop-opacity="0"/>
</linearGradient>
<linearGradient id="paint3_linear_823_472" x1="258.255" y1="118.106" x2="258.255" y2="152.427" gradientUnits="userSpaceOnUse">
<stop stop-color="#5DBEFF" stop-opacity="0.4"/>
<stop offset="1" stop-color="#D3DEE9" stop-opacity="0.5"/>
</linearGradient>
<clipPath id="clip0_823_472">
<rect width="16" height="16" fill="white" transform="translate(265.55 83.75)"/>
</clipPath>
</defs>
</svg>
