<svg width="396" height="445" viewBox="0 0 396 445" fill="none" xmlns="http://www.w3.org/2000/svg">
<g filter="url(#filter0_d_823_453)">
<rect x="11.1001" y="9.25" width="373.7" height="422.725" rx="22.2" fill="url(#paint0_linear_823_453)"/>
<rect x="15.7251" y="13.875" width="364.45" height="413.475" rx="17.575" stroke="white" stroke-width="9.25"/>
<path d="M270.647 93.9635C270.565 108.802 270.234 127.335 269.282 144.514C268.715 154.759 267.936 164.368 266.886 172.349C265.793 180.659 264.532 186.134 263.405 188.789C261.234 193.907 253.612 204.033 240.274 215.336C228.295 225.487 212.583 235.827 194.245 243.548C184.429 238.494 170.929 230.668 158.122 221.434C142.829 210.409 130.155 198.526 124.73 188.005L124.325 187.219L123.805 186.504L123.483 186.036C121.89 183.59 118.978 177.514 116.364 169.272L115.813 167.486C115.826 167.496 115.603 166.396 115.413 163.462C115.236 160.732 115.128 157.204 115.081 153.08C114.988 144.85 115.143 134.72 115.397 124.797C115.651 114.895 116.001 105.299 116.287 98.1715C116.346 96.7027 116.403 95.3396 116.455 94.1012L193.739 65.9547L270.647 93.9635Z" fill="#FDFDFD" stroke="url(#paint1_linear_823_453)" stroke-width="23.125"/>
<path d="M230.097 126.257L193.498 113.313V196.563C211.648 189.542 223.982 177.332 226.673 170.99C229.669 163.927 230.097 139.527 230.097 126.257Z" fill="#E8EBFF"/>
<path d="M195.067 141.544C183.494 141.082 186.629 149.064 189.642 153.113V164.103C193.262 170.119 197.178 166.61 198.684 164.103V153.113C202.301 149.45 206.641 142.007 195.067 141.544Z" fill="#FAFDFF" stroke="#0B2098" stroke-width="0.925"/>
<path d="M230.525 126.043L193.497 112.559L156.469 126.043C156.469 126.043 154.971 157.292 156.255 161.573C157.54 165.853 159.181 169.42 160.322 170.99C165.973 181.949 184.793 193.107 193.497 197.316C211.647 190.296 224.41 177.332 227.1 170.99C230.097 163.927 230.525 139.313 230.525 126.043Z" stroke="#0623CA" stroke-width="1.85"/>
<rect x="211.45" y="88.25" width="92" height="25" rx="7" fill="#5DBEFF" fill-opacity="0.4"/>
<g clip-path="url(#clip0_823_453)">
<path d="M233.139 92.75H225.762C223.381 92.75 221.45 94.6803 221.45 97.0615V104.438C221.45 106.82 223.381 108.75 225.762 108.75H233.139C235.52 108.75 237.45 106.82 237.45 104.438V97.0615C237.45 94.6803 235.52 92.75 233.139 92.75Z" fill="#0026FF"/>
<path d="M235.025 95.8808V100.005C235.025 100.086 234.959 100.153 234.877 100.153H226.864C226.605 100.153 226.378 100.334 226.329 100.588C226.294 100.771 226.275 100.961 226.274 101.155C226.107 101.005 225.964 100.851 225.842 100.695C225.8 100.641 225.759 100.587 225.722 100.531C224.319 98.5025 225.861 95.7285 228.327 95.7285H234.873C234.957 95.7285 235.025 95.7966 235.025 95.8808Z" fill="white"/>
<path d="M223.875 105.619V101.495C223.875 101.414 223.941 101.348 224.023 101.348H232.036C232.295 101.348 232.522 101.166 232.571 100.912C232.606 100.729 232.625 100.54 232.626 100.346C232.793 100.495 232.936 100.649 233.058 100.805C233.1 100.859 233.14 100.913 233.178 100.969C234.581 102.998 233.039 105.772 230.573 105.772H224.027C223.943 105.772 223.875 105.704 223.875 105.619Z" fill="white"/>
</g>
<path d="M253.754 96.462C251.258 96.462 249.754 98.302 249.754 101.038C249.754 103.838 251.386 105.454 253.77 105.454C255.738 105.454 257.322 104.446 257.322 102.11V101.774H253.45V100.382H258.794V106.766H257.482L257.37 105.198C256.746 106.206 255.338 106.942 253.642 106.942C250.362 106.942 248.106 104.574 248.106 101.006C248.106 97.486 250.378 94.99 253.786 94.99C256.314 94.99 258.282 96.446 258.666 98.67H257.002C256.57 97.198 255.29 96.462 253.754 96.462ZM266.181 98.926H267.669V106.75H266.325L266.165 105.566C265.717 106.382 264.677 106.942 263.525 106.942C261.701 106.942 260.677 105.71 260.677 103.79V98.926H262.181V103.294C262.181 104.974 262.901 105.614 264.053 105.614C265.429 105.614 266.181 104.734 266.181 103.054V98.926ZM272.139 106.942C270.459 106.942 269.467 105.998 269.467 104.574C269.467 103.134 270.539 102.238 272.379 102.094L274.843 101.902V101.678C274.843 100.366 274.059 99.902 273.003 99.902C271.739 99.902 271.019 100.462 271.019 101.406H269.707C269.707 99.774 271.051 98.702 273.067 98.702C275.003 98.702 276.315 99.726 276.315 101.838V106.75H275.035L274.875 105.486C274.475 106.382 273.403 106.942 272.139 106.942ZM272.571 105.774C273.995 105.774 274.859 104.846 274.859 103.374V102.958L272.859 103.118C271.531 103.246 270.987 103.758 270.987 104.526C270.987 105.358 271.595 105.774 272.571 105.774ZM282.878 98.862V100.238H282.206C280.782 100.238 279.902 101.102 279.902 102.606V106.75H278.398V98.942H279.806L279.902 100.126C280.222 99.31 281.006 98.766 282.078 98.766C282.35 98.766 282.574 98.798 282.878 98.862ZM287.143 106.942C284.871 106.942 283.495 105.246 283.495 102.862C283.495 100.462 284.887 98.702 287.207 98.702C288.407 98.702 289.415 99.23 289.943 100.19V94.974H291.431V106.75H290.087L289.959 105.326C289.447 106.398 288.391 106.942 287.143 106.942ZM287.447 105.582C288.983 105.582 289.927 104.446 289.927 102.814C289.927 101.214 288.983 100.062 287.447 100.062C285.911 100.062 285.015 101.214 285.015 102.814C285.015 104.43 285.911 105.582 287.447 105.582Z" fill="#0026FF"/>
</g>
<defs>
<filter id="filter0_d_823_453" x="9.82285e-05" y="5.96046e-07" width="395.9" height="444.925" filterUnits="userSpaceOnUse" color-interpolation-filters="sRGB">
<feFlood flood-opacity="0" result="BackgroundImageFix"/>
<feColorMatrix in="SourceAlpha" type="matrix" values="0 0 0 0 0 0 0 0 0 0 0 0 0 0 0 0 0 0 127 0" result="hardAlpha"/>
<feOffset dy="1.85"/>
<feGaussianBlur stdDeviation="5.55"/>
<feComposite in2="hardAlpha" operator="out"/>
<feColorMatrix type="matrix" values="0 0 0 0 0 0 0 0 0 0 0 0 0 0 0 0 0 0 0.08 0"/>
<feBlend mode="normal" in2="BackgroundImageFix" result="effect1_dropShadow_823_453"/>
<feBlend mode="normal" in="SourceGraphic" in2="effect1_dropShadow_823_453" result="shape"/>
</filter>
<linearGradient id="paint0_linear_823_453" x1="199.219" y1="25.4402" x2="210.311" y2="614.403" gradientUnits="userSpaceOnUse">
<stop offset="0.151424" stop-color="#FCFCFC"/>
<stop offset="1" stop-color="#E9ECFF"/>
</linearGradient>
<linearGradient id="paint1_linear_823_453" x1="192.863" y1="53.65" x2="192.4" y2="283.975" gradientUnits="userSpaceOnUse">
<stop stop-color="#B3BEFF"/>
<stop offset="1" stop-color="#EAF4FB" stop-opacity="0"/>
</linearGradient>
<clipPath id="clip0_823_453">
<rect width="16" height="16" fill="white" transform="translate(221.45 92.75)"/>
</clipPath>
</defs>
</svg>
