<svg role="img" viewBox="0 0 24 24" xmlns="http://www.w3.org/2000/svg" fill="currentColor">
  <path fill="currentColor" fill-rule="evenodd" d="M12 0C8.21 0 4.831 1.757 2.632 4.501l3.953 6.848A5.965 5.965 0 0 1 12 6c2.206 0 4.15 1.194 5.2 2.97l3.936-6.81A11.943 11.943 0 0 0 12 0zM1.931 5.638A11.943 11.943 0 0 0 0 12c0 6.012 4.42 10.991 10.189 11.864l3.936-6.82a5.94 5.94 0 0 1-4.065-4.358L1.93 5.638zM12 18a5.965 5.965 0 0 1-5.415-3.488l-3.953 6.848A11.943 11.943 0 0 0 12 24c4.152 0 7.837-2.027 10.134-5.16l-3.902-6.76A5.965 5.965 0 0 1 12 18zm10.069-6.362l-3.902 6.76A11.943 11.943 0 0 0 24 12c0-2.52-.779-4.861-2.105-6.789l-3.953 6.848a5.94 5.94 0 0 1 4.127 3.313z"/>
  <circle fill="currentColor" cx="12" cy="12" r="3.2"/>
</svg>
