<svg width="164" height="97" viewBox="0 0 164 97" fill="none" xmlns="http://www.w3.org/2000/svg">
<g opacity="0.19">
<g opacity="0.24">
<path fill-rule="evenodd" clip-rule="evenodd" d="M147.307 30.4893L173.622 30.4893V56.805H170.803C157.826 56.805 147.307 46.2854 147.307 33.3088V30.4893Z" fill="white"/>
<path fill-rule="evenodd" clip-rule="evenodd" d="M144.74 30.4893L118.425 30.4893V56.805H121.244C134.221 56.805 144.74 46.2854 144.74 33.3088V30.4893Z" fill="white"/>
<path fill-rule="evenodd" clip-rule="evenodd" d="M114.57 56.8086H88.5755V30.4929H91.3607C104.179 30.4929 114.57 41.0125 114.57 53.9891V56.8086Z" fill="white"/>
<path fill-rule="evenodd" clip-rule="evenodd" d="M59.0527 56.8086L85.3685 56.8086V30.4929H82.5489C69.5723 30.4929 59.0527 41.0125 59.0527 53.9891V56.8086Z" fill="white"/>
<path fill-rule="evenodd" clip-rule="evenodd" d="M59.0527 0L85.3685 0V26.3157H82.5489C69.5723 26.3157 59.0527 15.7961 59.0527 2.81954V0Z" fill="white"/>
<path fill-rule="evenodd" clip-rule="evenodd" d="M114.25 26.3184L87.9343 26.3184V0.00263977H90.7538C103.73 0.00263977 114.25 10.5222 114.25 23.4988V26.3184Z" fill="white"/>
<path fill-rule="evenodd" clip-rule="evenodd" d="M144.096 26.3184L118.101 26.3184V0.00263977H120.886C133.704 0.00263977 144.096 10.5222 144.096 23.4988V26.3184Z" fill="white"/>
<path fill-rule="evenodd" clip-rule="evenodd" d="M147.307 26.3184L173.622 26.3184V0.00263977H170.803C157.826 0.00263977 147.307 10.5222 147.307 23.4988V26.3184Z" fill="white"/>
</g>
<g opacity="0.24">
<path fill-rule="evenodd" clip-rule="evenodd" d="M88.2559 92.4238H114.572V118.74H111.752C98.7755 118.74 88.2559 108.22 88.2559 95.2434V92.4238Z" fill="white"/>
<path fill-rule="evenodd" clip-rule="evenodd" d="M85.6875 92.4238L59.3718 92.4238L59.3718 118.74H62.1913C75.1679 118.74 85.6875 108.22 85.6875 95.2434V92.4238Z" fill="white"/>
<path fill-rule="evenodd" clip-rule="evenodd" d="M55.5195 118.739H29.5247L29.5247 92.4235H32.3099C45.1282 92.4235 55.5195 102.943 55.5195 115.92V118.739Z" fill="white"/>
<path fill-rule="evenodd" clip-rule="evenodd" d="M0 118.739L26.3157 118.739L26.3157 92.4235H23.4962C10.5196 92.4235 0 102.943 0 115.92L0 118.739Z" fill="white"/>
<path fill-rule="evenodd" clip-rule="evenodd" d="M0 61.9365H26.3157L26.3157 88.2522H23.4962C10.5196 88.2522 0 77.7326 0 64.7561L0 61.9365Z" fill="white"/>
<path fill-rule="evenodd" clip-rule="evenodd" d="M55.1973 88.2559H28.8815L28.8815 61.9401H31.7011C44.6777 61.9401 55.1973 72.4597 55.1973 85.4363V88.2559Z" fill="white"/>
<path fill-rule="evenodd" clip-rule="evenodd" d="M172.977 118.739H146.661V92.4235H149.48C162.457 92.4235 172.977 102.943 172.977 115.92V118.739Z" fill="white"/>
<path fill-rule="evenodd" clip-rule="evenodd" d="M117.457 118.739L143.452 118.739V92.4235H140.667C127.848 92.4235 117.457 102.943 117.457 115.92V118.739Z" fill="white"/>
<path fill-rule="evenodd" clip-rule="evenodd" d="M117.457 61.9365H143.452V88.2522H140.667C127.848 88.2522 117.457 77.7326 117.457 64.7561V61.9365Z" fill="white"/>
<path fill-rule="evenodd" clip-rule="evenodd" d="M172.338 88.2559H146.343V61.9401H149.128C161.947 61.9401 172.338 72.4597 172.338 85.4363V88.2559Z" fill="white"/>
<path fill-rule="evenodd" clip-rule="evenodd" d="M85.0449 88.2559H59.0501V61.9401H61.8353C74.6536 61.9401 85.0449 72.4597 85.0449 85.4363V88.2559Z" fill="white"/>
<path fill-rule="evenodd" clip-rule="evenodd" d="M88.2559 88.2559L114.572 88.2559V61.9401H111.752C98.7755 61.9401 88.2559 72.4597 88.2559 85.4363V88.2559Z" fill="white"/>
</g>
</g>
</svg>
